<?xml version="1.0" encoding="utf-8"?>
<!-- Generator: Adobe Illustrator 17.0.0, SVG Export Plug-In . SVG Version: 6.00 Build 0)  -->
<!DOCTYPE svg PUBLIC "-//W3C//DTD SVG 1.1//EN" "http://www.w3.org/Graphics/SVG/1.1/DTD/svg11.dtd">
<svg version="1.1" id="图层_1" xmlns="http://www.w3.org/2000/svg" xmlns:xlink="http://www.w3.org/1999/xlink" x="0px" y="0px"
	 width="257.864px" height="18.924px" viewBox="0 0 257.864 18.924" enable-background="new 0 0 257.864 18.924"
	 xml:space="preserve">
<g>
	<path fill="#FFFFFF" d="M2.84,7.481l1.621,0.34l-0.24,0.6v6.901c4.041,0.76,7.842,1.34,9.762,1.54c2,0.2,2.9,0.2,4.201,0.08
		l0.12,0.56l-3.281,1.061c-3.961-0.84-7.481-1.621-11.402-2.541c-1.04,0.92-1.84,1.64-2.781,2.541L0,17.244
		c0.96-0.7,1.66-1.2,2.84-1.92V8.082L0.26,8.262l-0.14-0.6L2.84,7.481z M1.28,0.52c1.22,0.86,2.581,2,3.601,3.101l-1.22,1.12
		C2.82,3.38,1.9,2.1,0.92,0.9L1.28,0.52z M14.583,1.26l1.46,1.12l-0.94,0.26c-1.02,0.66-1.92,1.18-2.9,1.64l0.6,0.36l-0.4,0.541
		l2.521-0.1l1.601,0.32l-0.26,0.6v8.422l-0.58,1.101c-1.16-0.44-1.84-0.72-2.98-1.201l0.1-0.52l2.12,0.12v-2.34l-2.82,0.08v3.201
		l-1.34,0.28v-3.441l-2.861,0.1v3.161l-1.34,0.28V5.061l1.32,0.28l3.401-0.12c-0.84-0.74-1.8-1.521-2.681-2.181l0.26-0.42
		c0.76,0.32,1.72,0.78,2.621,1.26c0.98-0.68,1.98-1.44,2.661-2.021L6.721,2.2l-0.14-0.58L14.583,1.26z M7.901,8.282l2.861-0.1v-2.36
		l-2.861,0.1V8.282z M7.901,11.242l2.861-0.1v-2.4l-2.861,0.1V11.242z M12.103,5.781v2.36l2.82-0.1v-2.38L12.103,5.781z
		 M12.103,11.102l2.82-0.08V8.622l-2.82,0.08V11.102z"/>
	<path fill="#FFFFFF" d="M22.601,7.321c-0.62,1.101-1.32,2.201-2.101,3.281l-0.52-0.36c1.84-3.341,3.081-6.162,4.361-9.902
		l1.66,0.64l-0.64,0.56c-0.66,1.561-1.34,3.081-2.12,4.581l1,0.2l-0.3,0.68v11.382l-1.34,0.28V7.321z M30.202,0.34
		c0.8,0.64,1.7,1.5,2.48,2.341l-1.041,0.84l6.362-0.24l0.14,0.56l-12.663,0.48l-0.14-0.56l6.102-0.22c-0.44-0.96-1.061-2-1.641-2.82
		L30.202,0.34z M36.523,6.181l0.14,0.56l-9.762,0.34l-0.14-0.56L36.523,6.181z M36.503,9.002l0.14,0.58l-9.702,0.3l-0.12-0.56
		L36.503,9.002z M28.461,12.203l6.702-0.18l1.64,0.32l-0.26,0.66v5.021l-1.38,0.3v-1.6l-6.702,0.12v1.44l-1.38,0.28v-6.642
		L28.461,12.203z M28.461,12.783v3.521l6.702-0.12v-3.581L28.461,12.783z"/>
	<path fill="#FFFFFF" d="M43,7.521V2.721l-2.841,0.1l-0.14-0.6l7.021-0.26l0.14,0.62l-2.8,0.1v4.801l2.46-0.1l0.14,0.62l-2.601,0.1
		v4.821c0.94-0.34,1.86-0.7,2.741-1.061l0.26,0.54c-2.041,1.22-4.621,2.5-6.721,3.461l-0.72-1.38c1-0.32,2.041-0.68,3.061-1.04
		V8.142l-2.661,0.1l-0.14-0.62L43,7.521z M50.982,10.122c0.28-1.88,0.42-3.461,0.44-5.921l1.62,0.34l-0.32,0.72
		c-0.02,1.7-0.12,3.161-0.42,4.901c-0.66,3.901-3.4,6.801-7.361,8.482l-0.28-0.521C48.162,15.943,50.422,13.663,50.982,10.122z
		 M49.382,1.8l5.401-0.22l1.6,0.32l-0.28,0.66v8.501l-1.32,0.26V2.2l-5.401,0.22v9.062l-1.34,0.28V1.52L49.382,1.8z M53.863,10.722
		l-0.28,0.68v4.441c0,0.72,0.2,0.82,0.7,0.82c0.5,0,1.9-0.02,2.561-0.06l0.32-3.641h0.42l0.72,4.461l-1.1,0.32
		c-0.78,0.06-2.361,0.12-3.081,0.12c-1.641,0-1.841-0.34-1.841-1.74v-5.721L53.863,10.722z"/>
	<path fill="#FFFFFF" d="M63.141,12.743V6.421l-2.801,0.1l-0.16-0.62l2.961-0.1V0.46l1.64,0.32l-0.28,0.68v4.281l2.621-0.1
		l0.16,0.62l-2.78,0.12v5.961c1.06-0.32,2.1-0.64,3.061-0.98l0.28,0.64c-2.16,1-5.321,2.3-7.461,3.021l-0.56-1.46
		C60.82,13.343,61.98,13.063,63.141,12.743z M70.222,8.702l-1.32,0.04l-0.82,0.38l-0.58-1.201l0.6-0.24L74.343,2.4l-6.441,0.24
		l-0.16-0.58l6.941-0.28l1.66,0.98l-0.92,0.36l-6.202,5.021l7.242-0.26l1.64,0.34l-0.34,0.62c-0.3,2.92-0.8,6.301-1.36,9.002
		l-0.68,1c-1.18-0.42-2.541-0.96-3.701-1.48l0.14-0.521l2.98,0.3c0.54-2.541,1.02-5.501,1.32-8.662l-1.44,0.06
		c-1.46,4.921-3.781,7.602-7.702,10.022l-0.38-0.52c3.46-2.721,5.501-5.241,6.621-9.462l-1.84,0.06
		c-1.36,3.261-3.221,5.201-6.041,7.021l-0.38-0.56C67.662,13.163,69.242,11.282,70.222,8.702z"/>
	<path fill="#FFFFFF" d="M83.141,6.961c-0.82,1.44-1.76,2.88-2.801,4.321l-0.48-0.34c2-3.581,3.621-7.122,4.941-10.643l1.72,0.66
		l-0.66,0.58c-0.64,1.42-1.34,2.921-2.18,4.461l1.12,0.22l-0.28,0.64v11.522l-1.38,0.26V6.961z M90.162,0.24l1.72,0.62l-0.62,0.521
		c-0.34,0.78-0.78,1.66-1.26,2.581l8.022-0.3l0.14,0.56l-6.121,0.22v3.881l5.201-0.14l0.14,0.6l-5.341,0.16v3.761l5.741-0.14
		l0.12,0.6l-5.861,0.16v4.961l-1.38,0.28V4.501l-0.98,0.04c-1.141,2-2.501,4.061-3.681,5.421l-0.44-0.4
		C87.001,7.321,89.122,3.261,90.162,0.24z"/>
	<path fill="#FFFFFF" d="M106.241,16.543V0.74l1.66,0.34l-0.28,0.66v14.763l2.84-0.04V0.56l1.641,0.34l-0.26,0.62v14.903l6.102-0.12
		l0.14,0.62l-17.744,0.38l-0.14-0.64L106.241,16.543z M101.88,5.341c1.2,2.081,2.541,4.681,3.5,6.862l-1.56,0.76
		c-0.62-2.121-1.701-5.281-2.5-7.342L101.88,5.341z M115.943,4.401l1.82,0.66l-0.64,0.58c-1.24,2.94-2.261,4.961-3.981,7.562
		l-0.54-0.32C114.003,10.042,114.803,8.021,115.943,4.401z"/>
	<path fill="#FFFFFF" d="M124.781,5.421c0.22-0.78,0.34-1.62,0.36-2.581l-1.821,0.04c-0.44,0.7-0.98,1.42-1.5,2.061l-0.48-0.3
		c0.74-1.42,1.32-2.9,1.84-4.441l1.6,0.62l-0.54,0.46c-0.16,0.32-0.34,0.66-0.56,1.04l5.721-0.16l0.14,0.561l-3.021,0.08
		c-0.02,0.94-0.14,1.801-0.34,2.581l3.821-0.1l0.12,0.56l-4.101,0.1c-0.06,0.2-0.14,0.38-0.22,0.561c1.36,0.6,2.9,1.44,4.121,2.2
		l-0.92,1.36c-1.121-1.04-2.321-2.101-3.461-2.98c-0.96,1.9-2.681,3.261-5.101,4.301l-0.26-0.54c2.261-1.44,3.721-2.881,4.421-4.861
		l-4.221,0.1l-0.14-0.56L124.781,5.421z M125.401,10.722l7.802-0.22l1.601,0.3l-0.24,0.62v6.881l-1.36,0.28v-1.521l-7.802,0.12v1.24
		l-1.34,0.28v-8.262L125.401,10.722z M125.401,11.322v2.3l7.802-0.18v-2.341L125.401,11.322z M125.401,16.604l7.802-0.12v-2.44
		l-7.802,0.18V16.604z M131.902,2.021l3.641-0.14l1.661,0.4l-0.34,0.76v6.201l-1.32,0.3v-1.28l-3.581,0.1v1.2l-1.32,0.3V1.72
		L131.902,2.021z M131.962,2.661v5.041l3.581-0.1V2.521L131.962,2.661z"/>
	<path fill="#FFFFFF" d="M141.54,4.541c0.92-1.061,2.021-2.561,3.101-4.261l1.541,0.9l-0.8,0.48c-0.82,1.08-2,2.4-2.9,3.241
		c1.38-0.06,3.361-0.18,4.841-0.3c-0.28-0.581-0.6-1.161-0.92-1.761l0.42-0.32c1.08,1.02,2.041,2.16,2.781,3.301l-1.38,0.86
		c-0.18-0.42-0.34-0.86-0.54-1.28c-1.541,0.22-3.741,0.46-5.401,0.64l-0.94,0.38l-0.62-1.581L141.54,4.541z M141.66,7.361l1.32,0.28
		v0.02l3.921-0.16l1.62,0.36l-0.3,0.68v8.662l-0.8,1.18l-2.841-1.42l0.14-0.48l2.181,0.2v-3.161l-3.921,0.12v4.461l-1.32,0.28V7.361
		z M142.98,8.202v2.26l3.921-0.1V8.042L142.98,8.202z M142.98,13.083l3.921-0.12v-2.041l-3.921,0.1V13.083z M151.742,8.942
		l-0.38,0.74v3.241c1.62-0.92,3.101-1.94,4.561-3.041l1.14,1.44l-0.9,0.18c-1.34,0.76-2.94,1.52-4.801,2.24v1.88
		c0,0.92,0.1,1.101,1.08,1.101c1.021,0,2.44,0,3.761-0.06l0.3-3.261l0.54-0.04l0.78,4.041l-1.28,0.46
		c-1.521,0.1-2.841,0.12-4.241,0.12c-1.96,0-2.26-0.38-2.26-2.301V8.662L151.742,8.942z M151.762,0.96l-0.34,0.7v2.621
		c1.34-0.84,2.621-1.72,4.001-2.821l1.18,1.241l-0.88,0.22c-1.24,0.74-2.721,1.5-4.301,2.201v0.82c0,0.88,0.06,1.061,0.88,1.061
		c0.82,0,2.521-0.02,3.561-0.1l0.24-2.601h0.521c0.28,1.12,0.52,2.161,0.76,3.381l-1.24,0.38c-1.34,0.1-3.48,0.14-4.421,0.14
		c-1.28,0-1.62-0.34-1.62-2.141V0.64L151.762,0.96z"/>
	<path fill="#FFFFFF" d="M165.181,0.16l1.78,0.68l-0.7,0.62c-0.6,1.3-1.44,2.901-2.4,4.521l1.02,0.16l-0.36,0.86v11.382l-1.4,0.28
		V7.182c-1.041,1.64-2.161,3.221-3.201,4.341l-0.42-0.36C161.36,8.362,163.98,3.44,165.181,0.16z M169.622,9.502V0.22l1.74,0.34
		l-0.32,0.76v6.841c1.5-1.48,2.881-3.041,4.381-4.881l1.52,1.1l-0.82,0.4c-1.6,1.86-3.22,3.501-5.081,5.061v5.562
		c0,0.94,0.28,1.18,1.161,1.18c1.12,0,2.64-0.02,4.141-0.06l0.32-4.001l0.52-0.02l0.78,4.921l-1.081,0.42
		c-1.66,0.08-3.601,0.14-4.961,0.14c-1.76,0-2.3-0.42-2.3-2.401v-4.621c-1.28,0.94-2.681,1.88-4.261,2.8l-0.28-0.5
		C166.821,11.942,168.282,10.722,169.622,9.502z"/>
	<path fill="#FFFFFF" d="M184,11.603l10.042-0.28l1.66,0.3l-0.3,0.62v4.741l2.42-0.04l0.14,0.6l-17.544,0.36l-0.14-0.6l2.48-0.06
		v-5.861L184,11.603z M183.761,2.521l-0.24,0.56v6.481l-1.34,0.28V2.2L183.761,2.521z M184.121,17.224l2.42-0.06v-5.021l-2.42,0.08
		V17.224z M187.461,1.06l-0.22,0.56v8.882l-1.36,0.24V0.72L187.461,1.06z M191.362,0.68l1.78,0.62l-0.6,0.64
		c-0.26,0.66-0.54,1.32-0.86,1.98l5.961-0.2l0.14,0.6l-6.381,0.22c-0.8,1.6-1.76,3.241-3.041,4.981l-0.48-0.34
		C189.422,6.141,190.342,3.881,191.362,0.68z M187.881,17.144l2.321-0.06v-5.041l-2.321,0.06V17.144z M191.542,12.022v5.041
		l2.5-0.06v-5.061L191.542,12.022z M192.563,5.241c1.14,1.06,2.32,2.48,3.021,3.38l-1.36,1.041c-0.48-1.181-1.3-2.761-2.1-4.081
		L192.563,5.241z"/>
	<path fill="#FFFFFF" d="M203.98,0.28l1.641,0.86l-0.78,0.38l-0.58,0.8l4.901-0.2l0.14,0.64l-3.801,0.16
		c0.52,0.64,1,1.36,1.48,2.141l-1.32,0.72c-0.24-0.94-0.6-2-0.9-2.821l-1,0.04c-0.94,1.2-1.88,2.181-3.041,3.141l-0.44-0.42
		C201.7,4.001,202.9,2.26,203.98,0.28z M207.881,4.021c0.78,0.46,1.581,0.96,2.321,1.601l-0.94,0.94l6.662-0.24l1.66,0.72
		l-0.68,0.44c-0.48,0.66-0.9,1.16-1.46,1.72l-0.521-0.32c0.34-0.66,0.58-1.24,0.82-1.96l-13.023,0.44
		c-0.08,1.021-0.3,1.88-0.7,2.521l-1.24-0.86c0.64-0.84,1.121-1.801,1.44-3.041l0.54,0.04c0,0.26,0.02,0.5,0,0.74l6.401-0.2
		c-0.44-0.7-1.04-1.541-1.58-2.221L207.881,4.021z M205.061,9.062l7.542-0.24l1.64,0.32l-0.26,0.62v2.941l-1.38,0.26v-0.86
		l-7.501,0.22v1.761l8.242-0.24l1.66,0.32l-0.26,0.64v3.42l-1.4,0.28v-1.2l-8.242,0.24v0.8l-1.4,0.28V8.762L205.061,9.062z
		 M205.101,9.662v2.06l7.501-0.22V9.422L205.101,9.662z M205.101,14.703v2.24l8.242-0.24v-2.261L205.101,14.703z M211.002,0.34
		l1.561,0.74l-0.68,0.42l-0.56,0.8l6.042-0.22l0.16,0.641l-4.341,0.16c0.58,0.64,1.18,1.4,1.64,2.061l-1.26,0.78
		c-0.28-0.8-0.8-2.021-1.2-2.821l-1.54,0.06c-0.4,0.48-0.82,0.92-1.38,1.46l-0.46-0.36C209.782,2.88,210.382,1.76,211.002,0.34z"/>
	<path fill="#FFFFFF" d="M228.421,10.382V2.16l-6.541,0.22l-0.14-0.6l14.663-0.52l0.12,0.6l-6.702,0.24v8.242l7.722-0.18l0.14,0.62
		l-7.862,0.2v7.401l-1.4,0.28v-7.662l-7.721,0.18l-0.14-0.62L228.421,10.382z M223.36,3.541c1.36,1.541,2.181,2.661,3.261,4.261
		l-1.42,0.98c-0.7-1.74-1.36-3.101-2.341-4.921L223.36,3.541z M234.223,3.44l1.601,0.82l-0.68,0.44
		c-0.94,1.521-2.021,2.921-3.481,4.321l-0.46-0.38C232.342,7.021,233.223,5.481,234.223,3.44z"/>
	<path fill="#FFFFFF" d="M252.342,3.081c1.94,1.6,3.881,3.461,5.521,5.201l-1.4,1.24c-0.46-0.66-0.96-1.38-1.48-2.101
		c-2.96,0.3-9.882,0.8-12.083,0.94l-1.06,0.32l-0.6-1.5l0.94-0.4c1.86-1.54,5.181-4.841,6.802-6.781l1.56,1.16l-0.96,0.36
		c-1.36,1.5-4.861,4.561-6.202,5.582c1.801-0.04,8.082-0.26,11.083-0.38c-0.86-1.12-1.74-2.24-2.561-3.201L252.342,3.081z
		 M244.721,10.802l8.982-0.3l1.661,0.32l-0.28,0.68v6.981l-1.38,0.26v-1.76l-8.962,0.22v1.44l-1.4,0.28v-8.402L244.721,10.802z
		 M244.741,11.402v5.201l8.962-0.22v-5.281L244.741,11.402z"/>
</g>
</svg>
